<?xml version="1.0" encoding="utf-8"?><!DOCTYPE svg PUBLIC "-//W3C//DTD SVG 1.1//EN" "http://www.w3.org/Graphics/SVG/1.1/DTD/svg11.dtd"><svg xmlns="http://www.w3.org/2000/svg" viewBox="0 0 55 55" shape-rendering="crispEdges"><path fill="#fffdf8" d="M0 0h55v55H0z"/><path stroke="#19231d" d="M3 3.5h7m1 0h2m2 0h1m2 0h7m4 0h1m1 0h1m2 0h2m3 0h2m2 0h1m1 0h7M3 4.5h1m5 0h1m1 0h1m1 0h3m4 0h1m1 0h3m2 0h2m1 0h5m2 0h1m2 0h4m1 0h1m5 0h1M3 5.5h1m1 0h3m1 0h1m1 0h2m1 0h3m3 0h3m2 0h3m1 0h1m2 0h4m1 0h1m4 0h2m1 0h1m1 0h3m1 0h1M3 6.5h1m1 0h3m1 0h1m4 0h2m1 0h2m1 0h1m2 0h1m1 0h2m1 0h1m1 0h1m2 0h2m2 0h4m1 0h1m2 0h1m1 0h3m1 0h1M3 7.5h1m1 0h3m1 0h1m3 0h2m1 0h1m1 0h4m1 0h1m1 0h5m1 0h6m2 0h2m4 0h1m1 0h3m1 0h1M3 8.5h1m5 0h1m1 0h4m2 0h3m1 0h3m1 0h1m3 0h1m6 0h2m3 0h1m3 0h1m5 0h1M3 9.5h7m1 0h1m1 0h1m1 0h1m1 0h1m1 0h1m1 0h1m1 0h1m1 0h1m1 0h1m1 0h1m1 0h1m1 0h1m1 0h1m1 0h1m1 0h1m1 0h1m1 0h1m1 0h7M11 10.5h2m1 0h1m1 0h1m1 0h2m1 0h2m1 0h2m3 0h2m3 0h1m1 0h1m1 0h5M5 11.5h3m1 0h1m1 0h2m1 0h4m3 0h1m2 0h8m1 0h3m1 0h1m1 0h8m2 0h3M4 12.5h2m6 0h1m1 0h3m2 0h1m3 0h4m2 0h1m1 0h1m2 0h1m3 0h2m5 0h1m1 0h3M4 13.5h6m1 0h6m1 0h3m5 0h1m2 0h1m1 0h2m3 0h2m1 0h1m1 0h3m6 0h2M4 14.5h1m5 0h1m2 0h1m1 0h2m1 0h1m1 0h4m2 0h2m7 0h1m1 0h1m2 0h2m1 0h2m2 0h1m3 0h1M3 15.5h1m3 0h3m2 0h1m3 0h2m1 0h1m1 0h1m1 0h2m1 0h1m1 0h5m4 0h1m1 0h1m2 0h5m2 0h3M4 16.5h2m2 0h1m2 0h5m2 0h3m1 0h6m1 0h1m4 0h3m2 0h2m1 0h1m1 0h4m1 0h1M3 17.5h1m1 0h6m1 0h2m2 0h3m1 0h1m1 0h2m3 0h3m1 0h1m2 0h1m1 0h1m1 0h2m1 0h4m3 0h4M4 18.5h2m1 0h2m2 0h4m2 0h7m2 0h2m1 0h1m5 0h1m1 0h2m1 0h4m1 0h3m1 0h3M6 19.5h2m1 0h2m3 0h1m1 0h1m2 0h8m1 0h3m1 0h1m1 0h1m1 0h4m1 0h1m2 0h2m2 0h1M6 20.5h1m1 0h1m4 0h4m2 0h3m3 0h1m3 0h1m1 0h3m1 0h1m1 0h6m2 0h2m1 0h3M3 21.5h1m2 0h1m1 0h2m1 0h1m1 0h1m1 0h5m1 0h1m1 0h2m3 0h2m2 0h1m3 0h1m1 0h2m4 0h2m2 0h1m1 0h2M3 22.5h1m2 0h1m1 0h1m1 0h1m4 0h1m1 0h1m3 0h4m5 0h1m3 0h2m4 0h3m2 0h3m2 0h2M4 23.5h2m3 0h3m1 0h2m2 0h1m1 0h1m1 0h1m1 0h2m8 0h2m3 0h6m1 0h2m2 0h1M7 24.5h2m1 0h1m1 0h1m1 0h2m1 0h1m5 0h2m4 0h4m6 0h1m4 0h2M3 25.5h3m1 0h6m1 0h1m1 0h3m1 0h1m1 0h1m1 0h6m2 0h1m1 0h1m1 0h4m1 0h1m1 0h6m1 0h2M5 26.5h3m3 0h2m3 0h1m3 0h2m2 0h2m3 0h1m4 0h1m5 0h1m1 0h2m3 0h1M7 27.5h1m1 0h1m1 0h4m1 0h2m1 0h1m3 0h3m1 0h1m1 0h1m2 0h1m5 0h6m1 0h1m1 0h3m1 0h1M4 28.5h2m1 0h1m3 0h1m3 0h1m1 0h3m2 0h1m1 0h2m3 0h1m3 0h2m4 0h2m1 0h2m3 0h1m1 0h3M3 29.5h1m3 0h5m4 0h3m2 0h1m2 0h6m1 0h1m1 0h1m2 0h4m1 0h7m1 0h1m1 0h1M4 30.5h1m1 0h3m1 0h1m2 0h2m4 0h1m2 0h1m1 0h1m1 0h1m1 0h1m1 0h4m3 0h1m3 0h1m1 0h2m1 0h1m1 0h1m1 0h2M3 31.5h2m1 0h1m2 0h4m2 0h2m2 0h6m1 0h1m1 0h1m1 0h2m1 0h7m2 0h2m1 0h1m2 0h2m1 0h1M5 32.5h3m3 0h1m2 0h1m2 0h2m1 0h3m3 0h3m4 0h1m1 0h1m2 0h1m1 0h1m1 0h1m3 0h4M3 33.5h3m2 0h3m4 0h3m1 0h2m1 0h5m1 0h1m4 0h5m1 0h1m1 0h1m3 0h1m1 0h2m1 0h2M4 34.5h1m1 0h3m2 0h2m3 0h2m2 0h1m1 0h5m3 0h3m3 0h1m2 0h3m1 0h2m1 0h2M3 35.5h3m2 0h5m2 0h1m2 0h2m1 0h7m2 0h6m2 0h1m1 0h4m3 0h1m1 0h3M3 36.5h2m2 0h2m1 0h4m1 0h1m1 0h6m1 0h1m1 0h2m1 0h1m1 0h1m1 0h1m1 0h2m3 0h1m1 0h2m1 0h1m4 0h1M9 37.5h1m1 0h1m2 0h2m1 0h4m1 0h1m3 0h1m2 0h2m1 0h7m2 0h2m1 0h3m1 0h4M3 38.5h3m1 0h1m2 0h3m1 0h1m1 0h2m2 0h2m2 0h1m1 0h1m1 0h1m2 0h2m1 0h1m2 0h2m1 0h2m8 0h2M4 39.5h1m1 0h1m2 0h2m2 0h2m2 0h1m2 0h2m2 0h4m4 0h2m2 0h4m2 0h3m2 0h3M3 40.5h2m1 0h2m3 0h2m4 0h5m3 0h3m2 0h5m2 0h4m5 0h1m1 0h1M4 41.5h1m3 0h2m1 0h2m1 0h3m1 0h2m3 0h1m2 0h1m3 0h1m1 0h1m3 0h1m1 0h2m1 0h6m3 0h2M4 42.5h3m6 0h7m2 0h2m1 0h2m1 0h1m2 0h1m2 0h3m9 0h1m1 0h1M3 43.5h3m3 0h1m2 0h1m2 0h1m3 0h1m1 0h1m1 0h7m2 0h1m1 0h1m3 0h3m1 0h6m2 0h1M11 44.5h3m2 0h1m2 0h1m1 0h1m3 0h1m3 0h1m2 0h3m1 0h1m1 0h2m3 0h1m3 0h1M3 45.5h7m2 0h2m1 0h1m3 0h1m1 0h1m1 0h1m1 0h1m1 0h1m1 0h4m1 0h2m2 0h1m1 0h1m2 0h1m1 0h1m1 0h2m1 0h2M3 46.5h1m5 0h1m2 0h7m3 0h4m3 0h2m4 0h2m1 0h1m1 0h4m3 0h1m3 0h1M3 47.5h1m1 0h3m1 0h1m1 0h2m1 0h1m1 0h2m1 0h1m5 0h5m1 0h1m1 0h2m2 0h11m1 0h1M3 48.5h1m1 0h3m1 0h1m1 0h1m1 0h2m1 0h1m2 0h1m2 0h3m2 0h2m4 0h3m2 0h3m1 0h1m1 0h2m1 0h1m1 0h1m1 0h1M3 49.5h1m1 0h3m1 0h1m1 0h1m1 0h1m3 0h6m1 0h6m1 0h2m1 0h1m1 0h2m3 0h1m1 0h2m1 0h1m2 0h3M3 50.5h1m5 0h1m3 0h3m3 0h1m1 0h2m1 0h1m1 0h1m1 0h1m1 0h4m1 0h2m1 0h1m2 0h8m2 0h1M3 51.5h7m2 0h3m1 0h3m1 0h1m3 0h3m2 0h1m1 0h3m2 0h5m2 0h1m2 0h2m1 0h3"/></svg>
